<svg xmlns="http://www.w3.org/2000/svg" xmlns:xlink="http://www.w3.org/1999/xlink" viewBox="0 0 67 18.46"><defs><style>.cls-1{isolation:isolate;}.cls-2{fill:#0a4f70;}.cls-3{fill:url(#Degradado_sin_nombre_71);}.cls-4{fill:#10a3c7;}.cls-5{fill:url(#Degradado_sin_nombre_77);}.cls-6{fill:#ffab45;}.cls-7{fill:#73b5a2;}.cls-8{fill:aqua;}.cls-13,.cls-8{mix-blend-mode:color-dodge;}.cls-10,.cls-13,.cls-9{fill:#fff;}.cls-9{mix-blend-mode:screen;}.cls-11{fill:#44284f;}.cls-12{fill:none;}</style><linearGradient id="Degradado_sin_nombre_71" x1="15.36" y1="5.35" x2="-0.92" y2="5.35" gradientTransform="matrix(0.94, -0.16, 0.16, 0.95, -0.24, 3.66)" gradientUnits="userSpaceOnUse"><stop offset="0" stop-color="#007ea8"/><stop offset="0.17" stop-color="#0684b1"/><stop offset="0.45" stop-color="#1694cb"/><stop offset="0.57" stop-color="#1e9cd7"/><stop offset="0.87" stop-color="#0075be"/><stop offset="0.99" stop-color="#034768"/></linearGradient><linearGradient id="Degradado_sin_nombre_77" x1="24.75" y1="-0.76" x2="8.47" y2="-0.76" gradientTransform="matrix(-0.03, -0.75, 0.77, -0.03, 8.62, 24.84)" gradientUnits="userSpaceOnUse"><stop offset="0" stop-color="#00bbe7"/><stop offset="0.57" stop-color="#00bbe7"/><stop offset="0.87" stop-color="#00bbe7"/><stop offset="0.99" stop-color="#034768"/></linearGradient></defs><title>logo-header</title><g class="cls-1"><g id="Capa_2" data-name="Capa 2"><g id="Capa_1-2" data-name="Capa 1"><polygon class="cls-2" points="21.06 7.23 16.36 14.72 21.06 14.72 21.06 16.18 13.35 16.18 13.35 14.44 18.5 6.82 13.35 6.82 13.35 5.17 21.06 5.17 21.06 7.23"/><path class="cls-3" d="M14.28,1.3A10.26,10.26,0,0,0,1.2,11.53a10.1,10.1,0,0,0,1.15,4.24A9.5,9.5,0,0,1,14.28,1.3Z"/><path class="cls-4" d="M11.22,5.17H8.41L4.23,16.27H6.37l1.17-2.76H12.1l1.17,2.76h2.14Zm-3.32,7L9.82,6.92l1.92,5.22Z"/><path class="cls-5" d="M3.27,6.49A7.87,7.87,0,0,0,2.61,9a8,8,0,0,0,7.45,8.64,8.38,8.38,0,0,0,3.51-.46,7.82,7.82,0,0,1-4,1.25,7.55,7.55,0,0,1-8-7.12A7.27,7.27,0,0,1,3.27,6.49Z"/><path class="cls-6" d="M24,10.7h0Z"/><path class="cls-6" d="M24,11.12v0Z"/><path class="cls-6" d="M24,11.35v0Z"/><path class="cls-6" d="M24.07,11.59l0,.07,0-.07Z"/><polygon class="cls-6" points="24.14 11.88 24.14 11.88 24.14 11.88 24.14 11.88"/><path class="cls-6" d="M24,10.94h0Z"/><path class="cls-6" d="M24.3,12.36v0Z"/><path class="cls-6" d="M24.22,12.12h0Z"/><path class="cls-6" d="M24.4,12.59l0,0Z"/><path class="cls-7" d="M24.17,12l0-.06Z"/><path class="cls-7" d="M24,11v0Z"/><path class="cls-7" d="M24.12,11.8l0-.12Z"/><path class="cls-7" d="M24.42,12.63h0Z"/><path class="cls-7" d="M24.33,12.42v0Z"/><path class="cls-7" d="M24,10.73v0Z"/><path class="cls-7" d="M24.24,12.2v0Z"/><path class="cls-7" d="M24,11.36v.07l0,.16h0Z"/><path class="cls-7" d="M24,11.14v.11Z"/><path class="cls-6" d="M24.67,13.1v0h0Z"/><path class="cls-6" d="M25,13.63l0,0Z"/><path class="cls-6" d="M24.51,12.81l0-.05Z"/><path class="cls-6" d="M24.63,13l-.08-.14Z"/><path class="cls-6" d="M24.89,13.44l-.09-.13Z"/><path class="cls-6" d="M25.19,13.81l0,0Z"/><path class="cls-6" d="M27.44,9.09a1.82,1.82,0,0,1,1.31-.57h0a1.82,1.82,0,0,1,1.31.56l2.09-2.17a4.67,4.67,0,0,0-6.79,0,5.09,5.09,0,0,0-1.41,3.54h2.95A2,2,0,0,1,27.44,9.09Z"/><path class="cls-8" d="M27.44,9.09a1.82,1.82,0,0,1,1.31-.57h0a1.82,1.82,0,0,1,1.31.56l2.09-2.17a4.67,4.67,0,0,0-6.79,0,5.09,5.09,0,0,0-1.41,3.54h2.95A2,2,0,0,1,27.44,9.09Z"/><path class="cls-6" d="M24.71,13.17l0,.07,0-.05Z"/><path class="cls-7" d="M30.61,10.46H28.75v1.93a1.82,1.82,0,0,1-1.31-.57L25.35,14a4.7,4.7,0,0,0,3.4,1.46,4.91,4.91,0,0,0,4.8-5Z"/><path class="cls-9" d="M30.61,10.46H28.75v1.93a1.82,1.82,0,0,1-1.31-.57L25.35,14a4.7,4.7,0,0,0,3.4,1.46,4.91,4.91,0,0,0,4.8-5Z"/><path class="cls-7" d="M25,13.64h0Z"/><path class="cls-7" d="M25.2,13.83h0Z"/><path class="cls-7" d="M24.53,12.84h0Z"/><path class="cls-7" d="M24.9,13.45h0Z"/><path class="cls-7" d="M24.72,13.19l0,.05,0,.07.09.13h0Z"/><path class="cls-7" d="M24.53,12.85l0,.05.08.14,0,.07v0Z"/><path class="cls-10" d="M26.9,10.46h-3s0,.08,0,.12v.11h0v.21h0V11h0v.06h0l0,.11,0,.1h0l0,.23,0,.07v0l0,.12,0,.08h0v0l0,.06v0h0l0,.1h0v.07h0v0l0,.07h0v.09h0l0,.07,0,0h0l0,0v0h0l0,.09h0v0l0,.05v0h0l.16.27h0l0,0v0l.17.26h0l.07.09h0l0,0,0,0h0l.06.07,0,0,0,0,0,0h0l0,0,0,0,.08.09h0l2.09-2.17A2,2,0,0,1,26.9,10.46Z"/><polygon class="cls-11" points="28.75 10.46 28.75 10.46 28.75 10.46 28.75 10.46"/><path class="cls-10" d="M26.89,10.46h0a2,2,0,0,1,.54-1.36A2,2,0,0,0,26.89,10.46Z"/><rect class="cls-6" x="34.1" y="15.37" width="1.81" height="0.02"/><path class="cls-12" d="M39.11,8.41A1.4,1.4,0,0,0,37.72,7H36.33V9.8h1.38A1.4,1.4,0,0,0,39.11,8.41Z"/><path class="cls-6" d="M38.28,11.47H36.33v1l2,2.85H41l-2.69-3.92Z"/><path class="cls-13" d="M38.28,11.47H36.33v1l2,2.85H41l-2.69-3.92Z"/><path class="cls-7" d="M37.72,7a1.4,1.4,0,1,1,0,2.79h-.54l1.14,1.66a3.09,3.09,0,0,0-.4-6.14H36.33V7Z"/><path class="cls-9" d="M37.72,7a1.4,1.4,0,1,1,0,2.79h-.54l1.14,1.66a3.09,3.09,0,0,0-.4-6.14H36.33V7Z"/><path class="cls-10" d="M37.91,11.49h.4L37.17,9.8h-.84V5.32H34.1v10h2.23V11.49Z"/><rect class="cls-7" x="45.07" y="5.46" width="2.7" height="6.93"/><rect class="cls-9" x="45.07" y="5.46" width="2.7" height="6.93"/><path class="cls-6" d="M44.43,12.39V5.46h-2.7v6.93a3.05,3.05,0,0,0,3,3.07h0l.32,0v-3Z"/><path class="cls-13" d="M44.43,12.39V5.46h-2.7v6.93a3.05,3.05,0,0,0,3,3.07h0l.32,0v-3Z"/><path class="cls-10" d="M45.07,15.44h.14l.14,0h.06l.08,0,.06,0,.08,0,.06,0,.07,0,.06,0,.07,0,.06,0,.07,0,.06,0,.06,0,.06,0,.06,0,.06,0,.06,0,.06,0,.06,0,.05,0,.06,0,.05,0,.06-.05,0,0,.06-.06,0,0,.06-.07,0,0,.09-.11,0,0,.06-.08,0,0,0-.07,0-.05,0-.07,0-.05,0-.07,0-.06,0-.07,0-.06,0-.07,0-.06,0-.07,0-.06,0-.08,0-.06,0-.08,0-.06,0-.08V12.7s0-.07,0-.1v-.05q0-.08,0-.15h-2.7Z"/><rect class="cls-6" x="49.44" y="11.59" width="2.62" height="3.87"/><rect class="cls-13" x="49.44" y="11.59" width="2.62" height="3.87"/><path class="cls-7" d="M53.06,5.46h-1V7.27h.8a1.25,1.25,0,0,1,0,2.5h-.8v1.82h1A3,3,0,0,0,56,8.52,3,3,0,0,0,53.06,5.46Z"/><path class="cls-9" d="M53.06,5.46h-1V7.27h.8a1.25,1.25,0,0,1,0,2.5h-.8v1.82h1A3,3,0,0,0,56,8.52,3,3,0,0,0,53.06,5.46Z"/><polygon class="cls-10" points="51.38 9.77 51.38 7.28 52.06 7.28 52.06 5.46 49.44 5.46 49.44 11.59 52.06 11.59 52.06 9.77 51.38 9.77"/><path class="cls-6" d="M57.11,11.83h0Z"/><path class="cls-6" d="M57,11.61v0Z"/><path class="cls-6" d="M56.9,9.78v0Z"/><path class="cls-6" d="M57,11.38l0-.07Z"/><path class="cls-6" d="M57.11,8.76h0Z"/><path class="cls-6" d="M56.91,10.9v0Z"/><path class="cls-6" d="M56.88,10v0Z"/><path class="cls-6" d="M56.95,11.15l0-.09Z"/><path class="cls-6" d="M56.89,10.64v0Z"/><path class="cls-6" d="M56.93,9.53l0-.09Z"/><path class="cls-6" d="M57,9.27l0-.07Z"/><path class="cls-6" d="M57,9V9Z"/><path class="cls-6" d="M60.69,15.3h0Z"/><path class="cls-6" d="M60.94,15.36l-.07,0Z"/><path class="cls-6" d="M60.44,15.23h0Z"/><path class="cls-6" d="M61.94,8.29a2,2,0,0,1,2,2,2,2,0,0,1-.57,1.41l2.19,2.24A5.2,5.2,0,0,0,67,10.29a5.12,5.12,0,0,0-5.06-5.17,5,5,0,0,0-3.58,1.52l2.19,2.24A1.93,1.93,0,0,1,61.94,8.29Z"/><path class="cls-13" d="M61.94,8.29a2,2,0,0,1,2,2,2,2,0,0,1-.57,1.41l2.19,2.24A5.2,5.2,0,0,0,67,10.29a5.12,5.12,0,0,0-5.06-5.17,5,5,0,0,0-3.58,1.52l2.19,2.24A1.93,1.93,0,0,1,61.94,8.29Z"/><path class="cls-6" d="M63.44,15.23h0Z"/><path class="cls-6" d="M62.94,15.36h0Z"/><path class="cls-6" d="M63.19,15.3h0Z"/><path class="cls-7" d="M64.12,15,64,15Z"/><path class="cls-7" d="M63.67,15.15l-.1,0Z"/><path class="cls-7" d="M64.33,14.84l-.1.05Z"/><path class="cls-7" d="M63.9,15.06l-.1,0Z"/><path class="cls-7" d="M64.54,14.72l-.09.06Z"/><path class="cls-7" d="M65.33,14.12l-.06.05Z"/><path class="cls-7" d="M64.75,14.59l-.09.06Z"/><path class="cls-7" d="M65.14,14.29l-.08.06Z"/><path class="cls-7" d="M64.95,14.44l-.08.06Z"/><path class="cls-7" d="M63.35,15.26l.1,0h0Z"/><path class="cls-7" d="M62,12.29h-.1a2,2,0,0,1-2-2,2,2,0,0,1,.57-1.41L58.36,6.64h0a5.16,5.16,0,0,0-1.25,2.12h0L57,9V9l0,.19,0,.07,0,.16,0,.09,0,.15v.1c0,.06,0,.11,0,.17V10q0,.26,0,.51v.09c0,.06,0,.11,0,.17v.1l0,.15,0,.09,0,.16,0,.07,0,.19v0l.06.22h0a5.16,5.16,0,0,0,1.25,2.12,5,5,0,0,0,2.08,1.28h0l.21.06h0l.18,0,.07,0,.16,0,.09,0,.15,0h.85Z"/><path class="cls-9" d="M62,12.29h-.1a2,2,0,0,1-2-2,2,2,0,0,1,.57-1.41L58.36,6.64h0a5.16,5.16,0,0,0-1.25,2.12h0L57,9V9l0,.19,0,.07,0,.16,0,.09,0,.15v.1c0,.06,0,.11,0,.17V10q0,.26,0,.51v.09c0,.06,0,.11,0,.17v.1l0,.15,0,.09,0,.16,0,.07,0,.19v0l.06.22h0a5.16,5.16,0,0,0,1.25,2.12,5,5,0,0,0,2.08,1.28h0l.21.06h0l.18,0,.07,0,.16,0,.09,0,.15,0h.85Z"/><path class="cls-7" d="M63.12,15.32l.07,0h0Z"/><path class="cls-7" d="M62.88,15.37H63Z"/><path class="cls-11" d="M62.42,15.44h.11l.13,0,.1,0h0l.12,0,.1,0h0l.12,0,.1,0h0l.12,0,.1,0,.12,0,.1,0,.12,0,.1,0L64,15l.1,0,.12-.06.1-.05.12-.07.09-.06.12-.07.09-.06.12-.08.08-.06.12-.09.08-.06.13-.11.06-.05.18-.18h0l-2.19-2.24a1.93,1.93,0,0,1-1.29.58l.15,3.17h.23Z"/><path class="cls-10" d="M62.42,15.44h.11l.13,0,.1,0h0l.12,0,.1,0h0l.12,0,.1,0h0l.12,0,.1,0,.12,0,.1,0,.12,0,.1,0L64,15l.1,0,.12-.06.1-.05.12-.07.09-.06.12-.07.09-.06.12-.08.08-.06.12-.09.08-.06.13-.11.06-.05.18-.18h0l-2.19-2.24a1.93,1.93,0,0,1-1.29.58l.15,3.17h.23Z"/></g></g></g></svg>