<?xml version="1.0" encoding="utf-8"?>
<!-- Generator: Adobe Illustrator 21.0.0, SVG Export Plug-In . SVG Version: 6.00 Build 0)  -->
<svg version="1.1" id="Capa_1" xmlns="http://www.w3.org/2000/svg" xmlns:xlink="http://www.w3.org/1999/xlink" x="0px" y="0px"
	 viewBox="0 0 80 80" style="enable-background:new 0 0 80 80;" xml:space="preserve">
<style type="text/css">
	.st0{fill:#0A4F70;}
	.st1{fill:url(#SVGID_1_);}
	.st2{fill:#10A3C7;}
	.st3{fill:url(#SVGID_2_);}
	.st4{fill:none;}
</style>
<g>
	<polygon class="st0" points="73.4,31.5 58.8,54.7 73.4,54.7 73.4,59.3 49.5,59.3 49.5,53.9 65.5,30.2 49.5,30.2 49.5,25 73.4,25 	
		"/>
	
		<linearGradient id="SVGID_1_" gradientUnits="userSpaceOnUse" x1="56.7511" y1="34.0775" x2="6.1716" y2="34.0775" gradientTransform="matrix(0.9439 -0.1614 0.1618 0.9461 -4.1029 5.3049)">
		<stop  offset="0" style="stop-color:#007EA8"/>
		<stop  offset="0.1703" style="stop-color:#0684B1"/>
		<stop  offset="0.4525" style="stop-color:#1694CB"/>
		<stop  offset="0.5674" style="stop-color:#1E9CD7"/>
		<stop  offset="0.8652" style="stop-color:#0075BE"/>
		<stop  offset="0.9944" style="stop-color:#034768"/>
	</linearGradient>
	<path class="st1" d="M52.4,13c-3.3-0.9-6.7-1.4-10.3-1.2c-17.5,0.8-31.1,15.6-30.3,33c0.2,4.7,1.5,9.2,3.6,13.2
		c-3.5-4-5.9-8.9-6.9-14.5c-2.8-16.1,8-31.4,24.1-34.1C39.6,8.2,46.6,9.7,52.4,13z"/>
	<path class="st2" d="M42.9,25h-8.7l-13,34.5h6.6l3.6-8.6h14.2l3.6,8.6h6.6L42.9,25z M32.5,46.7l5.9-16.2l6,16.2H32.5z"/>
	
		<linearGradient id="SVGID_2_" gradientUnits="userSpaceOnUse" x1="28.5648" y1="51.5119" x2="-22.0147" y2="51.5119" gradientTransform="matrix(-2.951174e-02 -0.7488 0.7734 -3.048366e-02 -8.2976 51.6325)">
		<stop  offset="0" style="stop-color:#00BBE7"/>
		<stop  offset="0.5674" style="stop-color:#00BBE7"/>
		<stop  offset="0.8652" style="stop-color:#00BBE7"/>
		<stop  offset="0.9944" style="stop-color:#034768"/>
	</linearGradient>
	<path class="st3" d="M18.2,29.2c-1.1,2.4-1.8,5.1-2,7.9c-1.2,13.7,9.2,25.7,23.2,26.8c3.8,0.3,7.5-0.2,10.9-1.4
		c-3.5,2.3-7.7,3.7-12.3,3.9c-13.2,0.5-24.2-9.4-24.7-22.1C13,38.6,14.9,33.3,18.2,29.2z"/>
</g>
<rect id="_x3C_Sector_x3E_" x="5" y="5" class="st4" width="71" height="66"/>
</svg>
