<svg xmlns="http://www.w3.org/2000/svg" viewBox="0 0 74 64.86"><defs><style>.cls-1{fill:#fff;}</style></defs><title>logo-white</title><g id="Capa_2" data-name="Capa 2"><g id="Capa_1-2" data-name="Capa 1"><polygon class="cls-1" points="74 25.4 57.48 51.72 74 51.72 74 56.84 46.91 56.84 46.91 50.75 64.98 23.95 46.91 23.95 46.91 18.15 74 18.15 74 25.4"/><path class="cls-1" d="M50.17,4.57a36,36,0,0,0-46,35.93,35.48,35.48,0,0,0,4,14.89A33.37,33.37,0,0,1,50.17,4.57Z"/><path class="cls-1" d="M39.43,18.15H29.55l-14.67,39h7.52l4.1-9.68h16l4.1,9.68h7.52ZM27.77,42.66l6.73-18.34,6.75,18.34Z"/><path class="cls-1" d="M11.49,22.81a27.66,27.66,0,0,0-2.32,8.91C7.79,47.2,19.54,60.8,35.37,62.09A29.44,29.44,0,0,0,47.7,60.46a27.49,27.49,0,0,1-13.89,4.38c-14.87.59-27.39-10.61-28-25A25.55,25.55,0,0,1,11.49,22.81Z"/></g></g></svg>